<svg xmlns="http://www.w3.org/2000/svg" xmlns:svg="http://www.w3.org/2000/svg" xmlns:xlink="http://www.w3.org/1999/xlink" id="svg2816" width="64" height="64" version="1.1"><defs id="defs2818"><linearGradient id="linearGradient3631"><stop style="stop-color:#fff;stop-opacity:.50196081" id="stop3633" offset="0"/><stop style="stop-color:#fff;stop-opacity:0" id="stop3635" offset="1"/></linearGradient><linearGradient id="linearGradient3623"><stop style="stop-color:#0080ff;stop-opacity:1" id="stop3625" offset="0"/><stop style="stop-color:#0080ff;stop-opacity:0" id="stop3627" offset="1"/></linearGradient><linearGradient id="linearGradient3615"><stop style="stop-color:#fff;stop-opacity:.50196081" id="stop3617" offset="0"/><stop style="stop-color:#fff;stop-opacity:0" id="stop3619" offset="1"/></linearGradient><linearGradient id="linearGradient3818"><stop style="stop-color:#000;stop-opacity:.50196081" id="stop3820" offset="0"/><stop style="stop-color:#000;stop-opacity:0" id="stop3822" offset="1"/></linearGradient><linearGradient id="linearGradient3808"><stop style="stop-color:#0080ff;stop-opacity:1" id="stop3810" offset="0"/><stop style="stop-color:#80c4ff;stop-opacity:1" id="stop3812" offset="1"/></linearGradient><radialGradient id="radialGradient3814" cx="32" cy="32" r="16.51" fx="32" fy="32" gradientTransform="matrix(-1,0,0,-1.4845577,64,79.505846)" gradientUnits="userSpaceOnUse" xlink:href="#linearGradient3808"/><radialGradient id="radialGradient3824" cx="32" cy="55" r="14.5" fx="32" fy="55" gradientTransform="matrix(1,0,0,0.24137931,0,41.724138)" gradientUnits="userSpaceOnUse" xlink:href="#linearGradient3818"/><radialGradient id="radialGradient3629" cx="32" cy="45.472" r="16.51" fx="32" fy="45.472" gradientTransform="matrix(1,0,0,1.4845577,0,-15.505846)" gradientUnits="userSpaceOnUse" xlink:href="#linearGradient3623"/><linearGradient id="linearGradient3641" x1="26" x2="18" y1="28" y2="16" gradientUnits="userSpaceOnUse" xlink:href="#linearGradient3631"/><linearGradient id="linearGradient3659" x1="26" x2="18" y1="28" y2="16" gradientTransform="matrix(1.25,0,0,1.1666666,-4.5,-2.6666656)" gradientUnits="userSpaceOnUse" xlink:href="#linearGradient3631"/></defs><metadata id="metadata2821"/><g id="layer1"><path style="fill:url(#radialGradient3824);fill-opacity:1;stroke:none" id="path3816" d="m 46,55 a 14,3 0 1 1 -28,0 14,3 0 1 1 28,0 z" transform="matrix(1.2857141,0,0,1.3333333,-9.1428526,-15.333333)"/><path style="fill:url(#radialGradient3814);fill-opacity:1;stroke:none" id="rect3765" d="M 32,56 48,30 c 0,0 -4,4 -10,4 l 0,-4 0,-22 -12,0 0,22 0,4 C 20,34 16,30 16,30 l 16,26 z"/><path style="fill:url(#linearGradient3659);fill-opacity:1;fill-rule:evenodd;stroke:none" id="path3613" d="M 26 8 L 26 29.9375 C 26.662305 29.983856 27.320255 30 28 30 C 31.649497 30 35.054643 29.288963 38 28.09375 L 38 8 L 26 8 z"/><path style="fill:none;stroke:navy;stroke-width:1.01980388;stroke-opacity:1" id="path3652" d="M 32,56 48,30 c 0,0 -4,4 -10,4 l 0,-4 0,-22 -12,0 0,22 0,4 C 20,34 16,30 16,30 l 16,26 z"/></g></svg>