<svg xmlns="http://www.w3.org/2000/svg" xmlns:svg="http://www.w3.org/2000/svg" xmlns:xlink="http://www.w3.org/1999/xlink" id="svg2816" width="64" height="64" version="1.1"><defs id="defs2818"><linearGradient id="linearGradient3594"><stop style="stop-color:#80c0ff;stop-opacity:1" id="stop3596" offset="0"/><stop id="stop3602" offset=".5" style="stop-color:#80c0ff;stop-opacity:1"/><stop style="stop-color:#0080ff;stop-opacity:1" id="stop3598" offset="1"/></linearGradient><radialGradient id="radialGradient3600" cx="32" cy="32" r="32.5" fx="32" fy="32" gradientUnits="userSpaceOnUse" xlink:href="#linearGradient3594"/><radialGradient id="radialGradient3614" cx="32" cy="32" r="32.5" fx="32" fy="32" gradientTransform="matrix(1.2,0,0,1.2,-6.4,-6.4)" gradientUnits="userSpaceOnUse" xlink:href="#linearGradient3594"/><radialGradient id="radialGradient3632" cx="32" cy="32" r="24.5" fx="32" fy="32" gradientUnits="userSpaceOnUse" xlink:href="#linearGradient3594"/><radialGradient id="radialGradient3643" cx="32" cy="32" r="24.5" fx="32" fy="32" gradientUnits="userSpaceOnUse" xlink:href="#linearGradient3594"/><radialGradient id="radialGradient3648" cx="32" cy="32" r="24.5" fx="32" fy="32" gradientUnits="userSpaceOnUse" xlink:href="#linearGradient3594"/><radialGradient id="radialGradient3824" cx="32" cy="55" r="14.5" fx="32" fy="55" gradientTransform="matrix(1,0,0,0.24137931,0,41.724138)" gradientUnits="userSpaceOnUse" xlink:href="#linearGradient3818"/><linearGradient id="linearGradient3818"><stop style="stop-color:#000;stop-opacity:.50196081" id="stop3820" offset="0"/><stop style="stop-color:#000;stop-opacity:0" id="stop3822" offset="1"/></linearGradient><radialGradient id="radialGradient2855" cx="32" cy="55" r="14.5" fx="32" fy="55" gradientTransform="matrix(1,0,0,0.24137931,0,41.724138)" gradientUnits="userSpaceOnUse" xlink:href="#linearGradient3818"/><radialGradient id="radialGradient3670" cx="32" cy="32" r="24.5" fx="32" fy="32" gradientTransform="translate(0,-2)" gradientUnits="userSpaceOnUse" xlink:href="#linearGradient3594"/><linearGradient id="linearGradient3659" x1="26" x2="18" y1="28" y2="16" gradientUnits="userSpaceOnUse" xlink:href="#linearGradient3631"/><linearGradient id="linearGradient3631"><stop style="stop-color:#fff;stop-opacity:.50196081" id="stop3633" offset="0"/><stop style="stop-color:#fff;stop-opacity:0" id="stop3635" offset="1"/></linearGradient><linearGradient id="linearGradient2854" x1="26" x2="18" y1="28" y2="16" gradientTransform="matrix(2,0,0,1.3333333,-28,-7.3333331)" gradientUnits="userSpaceOnUse" xlink:href="#linearGradient3631"/></defs><metadata id="metadata2821"/><g id="layer1"><path style="fill:url(#radialGradient2855);fill-opacity:1;stroke:none" id="path3816" d="m 46,55 a 14,3 0 1 1 -28,0 14,3 0 1 1 28,0 z" transform="matrix(1.2857141,0,0,1.3333333,-9.1428512,-15.333331)"/><path style="fill:url(#radialGradient3670);fill-opacity:1;stroke:none;stroke-opacity:1" id="path3624" d="m 24,2 0,5.375 C 17.183306,9.785465 11.785465,15.183306 9.375,22 L 4,22 4,38 9.375,38 C 11.785465,44.816694 17.183306,50.214535 24,52.625 L 24,58 40,58 40,52.625 C 46.816694,50.214535 52.214535,44.816694 54.625,38 L 60,38 60,22 54.625,22 C 52.214535,15.183306 46.816694,9.785465 40,7.375 L 40,2 24,2 z m 8,12 c 8.836556,0 16,7.163444 16,16 0,8.836556 -7.163444,16 -16,16 -8.836556,0 -16,-7.163444 -16,-16 0,-8.836556 7.163444,-16 16,-16 z"/><path style="fill:url(#linearGradient2854);fill-opacity:1;fill-rule:evenodd;stroke:none" id="path3613" d="M 24 2 L 24 7.375 C 17.183306 9.785465 11.785465 15.183306 9.375 22 L 4 22 L 4 26.46875 C 7.4884338 27.869383 11.566654 28.926988 16.03125 29.5 C 16.299549 20.898547 23.333425 14 32 14 C 39.085296 14 45.083765 18.619347 47.1875 25 C 49.977475 23.53016 52.231313 21.791141 53.75 19.875 C 51.043991 14.068402 46.092037 9.5292175 40 7.375 L 40 2 L 24 2 z"/><path id="path3691" d="m 24,2 0,5.375 C 17.183306,9.785465 11.785465,15.183306 9.375,22 L 4,22 4,38 9.375,38 C 11.785465,44.816694 17.183306,50.214535 24,52.625 L 24,58 40,58 40,52.625 C 46.816694,50.214535 52.214535,44.816694 54.625,38 L 60,38 60,22 54.625,22 C 52.214535,15.183306 46.816694,9.785465 40,7.375 L 40,2 24,2 z m 8,12 c 8.836556,0 16,7.163444 16,16 0,8.836556 -7.163444,16 -16,16 -8.836556,0 -16,-7.163444 -16,-16 0,-8.836556 7.163444,-16 16,-16 z" style="fill:none;fill-opacity:1;stroke:#00007d;stroke-opacity:1"/></g></svg>