<svg xmlns="http://www.w3.org/2000/svg" xmlns:svg="http://www.w3.org/2000/svg" xmlns:xlink="http://www.w3.org/1999/xlink" id="svg2816" width="64" height="64" version="1.1"><defs id="defs2818"><linearGradient id="linearGradient3631"><stop style="stop-color:#fff;stop-opacity:.50196081" id="stop3633" offset="0"/><stop style="stop-color:#fff;stop-opacity:0" id="stop3635" offset="1"/></linearGradient><linearGradient id="linearGradient3623"><stop style="stop-color:#0080ff;stop-opacity:1" id="stop3625" offset="0"/><stop style="stop-color:#0080ff;stop-opacity:0" id="stop3627" offset="1"/></linearGradient><linearGradient id="linearGradient3615"><stop style="stop-color:#fff;stop-opacity:.50196081" id="stop3617" offset="0"/><stop style="stop-color:#fff;stop-opacity:0" id="stop3619" offset="1"/></linearGradient><linearGradient id="linearGradient3818"><stop style="stop-color:#000;stop-opacity:.50196081" id="stop3820" offset="0"/><stop style="stop-color:#000;stop-opacity:0" id="stop3822" offset="1"/></linearGradient><linearGradient id="linearGradient3808"><stop style="stop-color:#0080ff;stop-opacity:1" id="stop3810" offset="0"/><stop style="stop-color:#80c4ff;stop-opacity:1" id="stop3812" offset="1"/></linearGradient><radialGradient id="radialGradient3814" cx="32" cy="32" r="16.51" fx="32" fy="32" gradientTransform="matrix(-0.70710678,0.70710678,-1.0497408,-1.0497408,88.219123,42.964289)" gradientUnits="userSpaceOnUse" xlink:href="#linearGradient3808"/><radialGradient id="radialGradient3824" cx="32" cy="55" r="14.5" fx="32" fy="55" gradientTransform="matrix(1,0,0,0.24137931,0,41.724138)" gradientUnits="userSpaceOnUse" xlink:href="#linearGradient3818"/><radialGradient id="radialGradient3629" cx="32" cy="45.472" r="16.51" fx="32" fy="45.472" gradientTransform="matrix(1,0,0,1.4845577,0,-15.505846)" gradientUnits="userSpaceOnUse" xlink:href="#linearGradient3623"/><linearGradient id="linearGradient3641" x1="26" x2="18" y1="28" y2="16" gradientUnits="userSpaceOnUse" xlink:href="#linearGradient3631"/><linearGradient id="linearGradient3659" x1="26" x2="18" y1="28" y2="16" gradientUnits="userSpaceOnUse" xlink:href="#linearGradient3631"/><linearGradient id="linearGradient3803" x1="26" x2="18" y1="28" y2="16" gradientTransform="matrix(1.25,0,0,1.1666666,-4.5,-2.6666656)" gradientUnits="userSpaceOnUse" xlink:href="#linearGradient3631"/></defs><metadata id="metadata2821"/><g id="layer1"><path style="fill:url(#radialGradient3824);fill-opacity:1;stroke:none" id="path3816" d="m 46,55 a 14,3 0 1 1 -28,0 14,3 0 1 1 28,0 z" transform="matrix(1.2857141,0,0,1.3333333,-9.1428526,-15.333333)"/><path style="fill:url(#radialGradient3814);fill-opacity:1;stroke:none" id="rect3765" d="M 48.970563,48.970563 41.899495,19.272078 c 0,0 0,5.656854 -4.242641,9.899495 l -2.828427,-2.828427 -15.556349,-15.556349 -8.485281,8.485281 15.556349,15.556349 2.828427,2.828427 c -4.242641,4.242641 -9.899495,4.242641 -9.899495,4.242641 l 29.698485,7.071068 z"/><path style="fill:url(#linearGradient3803);fill-opacity:1;fill-rule:evenodd;stroke:none" id="path3613" d="M 19.28125 10.78125 L 10.78125 19.28125 L 20.46875 28.96875 C 22.795939 29.632392 25.332089 30 28 30 C 31.241337 30 34.292271 29.458104 37 28.5 L 34.84375 26.34375 L 19.28125 10.78125 z M 41.90625 19.28125 C 41.90625 19.28125 41.909728 23.748271 38.9375 27.71875 C 40.567214 26.972497 42.028379 26.068836 43.28125 25.03125 L 41.90625 19.28125 z"/><path style="fill:none;stroke:navy;stroke-width:1.01980388;stroke-opacity:1" id="path3652" d="M 48.970563,48.970563 41.899495,19.272078 c 0,0 0,5.656854 -4.242641,9.899495 l -2.828427,-2.828427 -15.556349,-15.556349 -8.485281,8.485281 15.556349,15.556349 2.828427,2.828427 c -4.242641,4.242641 -9.899495,4.242641 -9.899495,4.242641 l 29.698485,7.071068 z"/></g></svg>