<svg xmlns="http://www.w3.org/2000/svg" xmlns:svg="http://www.w3.org/2000/svg" xmlns:xlink="http://www.w3.org/1999/xlink" id="svg2816" width="64" height="64" version="1.1"><defs id="defs2818"><linearGradient id="linearGradient3631"><stop style="stop-color:#fff;stop-opacity:.50196081" id="stop3633" offset="0"/><stop style="stop-color:#fff;stop-opacity:0" id="stop3635" offset="1"/></linearGradient><linearGradient id="linearGradient3623"><stop style="stop-color:#0080ff;stop-opacity:1" id="stop3625" offset="0"/><stop style="stop-color:#0080ff;stop-opacity:0" id="stop3627" offset="1"/></linearGradient><linearGradient id="linearGradient3615"><stop style="stop-color:#fff;stop-opacity:.50196081" id="stop3617" offset="0"/><stop style="stop-color:#fff;stop-opacity:0" id="stop3619" offset="1"/></linearGradient><linearGradient id="linearGradient3818"><stop style="stop-color:#000;stop-opacity:.50196081" id="stop3820" offset="0"/><stop style="stop-color:#000;stop-opacity:0" id="stop3822" offset="1"/></linearGradient><linearGradient id="linearGradient3808"><stop style="stop-color:#0080ff;stop-opacity:1" id="stop3810" offset="0"/><stop style="stop-color:#80c4ff;stop-opacity:1" id="stop3812" offset="1"/></linearGradient><radialGradient id="radialGradient3814" cx="32" cy="32" r="16.51" fx="32" fy="32" gradientTransform="matrix(-0.70710678,-0.70710678,1.0497408,-1.0497408,21.035711,88.219123)" gradientUnits="userSpaceOnUse" xlink:href="#linearGradient3808"/><radialGradient id="radialGradient3824" cx="32" cy="55" r="14.5" fx="32" fy="55" gradientTransform="matrix(1,0,0,0.24137931,0,41.724138)" gradientUnits="userSpaceOnUse" xlink:href="#linearGradient3818"/><radialGradient id="radialGradient3629" cx="32" cy="45.472" r="16.51" fx="32" fy="45.472" gradientTransform="matrix(1,0,0,1.4845577,0,-15.505846)" gradientUnits="userSpaceOnUse" xlink:href="#linearGradient3623"/><linearGradient id="linearGradient3641" x1="26" x2="18" y1="28" y2="16" gradientUnits="userSpaceOnUse" xlink:href="#linearGradient3631"/><linearGradient id="linearGradient3659" x1="26" x2="18" y1="28" y2="16" gradientUnits="userSpaceOnUse" xlink:href="#linearGradient3631"/><linearGradient id="linearGradient3753" x1="26" x2="18" y1="28" y2="16" gradientTransform="matrix(1.25,0,0,1.1666666,-4.5,-2.6666656)" gradientUnits="userSpaceOnUse" xlink:href="#linearGradient3631"/></defs><metadata id="metadata2821"/><g id="layer1"><path style="fill:url(#radialGradient3824);fill-opacity:1;stroke:none" id="path3816" d="m 46,55 a 14,3 0 1 1 -28,0 14,3 0 1 1 28,0 z" transform="matrix(1.2857141,0,0,1.3333333,-9.1428526,-15.333333)"/><path style="fill:url(#radialGradient3814);fill-opacity:1;stroke:none" id="rect3765" d="m 15.029437,48.970563 29.698485,-7.071068 c 0,0 -5.656854,0 -9.899495,-4.242641 l 2.828427,-2.828427 15.556349,-15.556349 -8.485281,-8.485281 -15.556349,15.556349 -2.828427,2.828427 c -4.242641,-4.242641 -4.242641,-9.899495 -4.242641,-9.899495 l -7.071068,29.698485 z"/><path style="fill:url(#linearGradient3753);fill-opacity:1;fill-rule:evenodd;stroke:none" id="path3613" d="M 44.71875 10.78125 L 29.15625 26.34375 L 26.34375 29.15625 C 22.101109 24.913609 22.09375 19.28125 22.09375 19.28125 L 19.84375 28.78125 C 22.337337 29.563026 25.090911 30 28 30 C 39.045695 30 48 23.731986 48 16 C 48 15.275126 47.932995 14.570181 47.78125 13.875 C 47.77911 13.865196 47.783419 13.853547 47.78125 13.84375 L 44.71875 10.78125 z"/><path style="fill:none;stroke:navy;stroke-width:1.01980388;stroke-opacity:1" id="path3652" d="m 15.029437,48.970563 29.698485,-7.071068 c 0,0 -5.656854,0 -9.899495,-4.242641 l 2.828427,-2.828427 15.556349,-15.556349 -8.485281,-8.485281 -15.556349,15.556349 -2.828427,2.828427 c -4.242641,-4.242641 -4.242641,-9.899495 -4.242641,-9.899495 l -7.071068,29.698485 z"/></g></svg>