<svg xmlns="http://www.w3.org/2000/svg" xmlns:svg="http://www.w3.org/2000/svg" xmlns:xlink="http://www.w3.org/1999/xlink" id="svg2816" width="64" height="64" version="1.1"><defs id="defs2818"><linearGradient id="linearGradient3645"><stop style="stop-color:red;stop-opacity:1" id="stop3647" offset="0"/><stop style="stop-color:#c00000;stop-opacity:1" id="stop3649" offset="1"/></linearGradient><linearGradient id="linearGradient3659" x1="26" x2="18" y1="28" y2="16" gradientUnits="userSpaceOnUse" xlink:href="#linearGradient3631"/><linearGradient id="linearGradient3631"><stop style="stop-color:#fff;stop-opacity:.50196081" id="stop3633" offset="0"/><stop style="stop-color:#fff;stop-opacity:0" id="stop3635" offset="1"/></linearGradient><linearGradient id="linearGradient2854" x1="26" x2="18" y1="28" y2="16" gradientTransform="matrix(1.5,0,0,1.1666666,-7,-2.6666654)" gradientUnits="userSpaceOnUse" xlink:href="#linearGradient3631"/><radialGradient id="radialGradient3651" cx="32" cy="29" r="20.094" fx="32" fy="29" gradientUnits="userSpaceOnUse" xlink:href="#linearGradient3645"/></defs><metadata id="metadata2821"/><g id="layer1"><path style="fill:url(#radialGradient3651);stroke:maroon;stroke-width:2;stroke-linecap:round;stroke-linejoin:miter;stroke-miterlimit:4;stroke-opacity:1;stroke-dasharray:none;fill-opacity:1" id="rect2868" d="M 19.96875 9.90625 L 12.90625 16.96875 L 24.9375 29 L 12.90625 41.03125 L 19.96875 48.09375 L 32 36.0625 L 44.03125 48.09375 L 51.09375 41.03125 L 39.0625 29 L 51.09375 16.96875 L 44.03125 9.90625 L 32 21.9375 L 19.96875 9.90625 z"/><path style="fill:url(#linearGradient2854);fill-opacity:1;fill-rule:evenodd;stroke:none" id="path3613" d="M 19.96875 9.90625 L 12.90625 16.96875 L 24.9375 29 L 24.625 29.3125 C 26.953596 29.751815 29.420644 30 32 30 C 34.579356 30 37.046404 29.751815 39.375 29.3125 L 39.0625 29 L 51.09375 16.96875 L 44.03125 9.90625 L 32 21.9375 L 19.96875 9.90625 z"/><path id="path3653" d="M 19.96875 9.90625 L 12.90625 16.96875 L 24.9375 29 L 12.90625 41.03125 L 19.96875 48.09375 L 32 36.0625 L 44.03125 48.09375 L 51.09375 41.03125 L 39.0625 29 L 51.09375 16.96875 L 44.03125 9.90625 L 32 21.9375 L 19.96875 9.90625 z" style="fill:none;stroke:maroon;stroke-width:2;stroke-linecap:round;stroke-linejoin:miter;stroke-miterlimit:4;stroke-opacity:1;stroke-dasharray:none;fill-opacity:1"/></g></svg>