<svg xmlns="http://www.w3.org/2000/svg" xmlns:svg="http://www.w3.org/2000/svg" xmlns:xlink="http://www.w3.org/1999/xlink" id="svg2816" width="64" height="64" version="1.1"><defs id="defs2818"><linearGradient id="linearGradient4376"><stop style="stop-color:#0080ff;stop-opacity:1" id="stop4378" offset="0"/><stop style="stop-color:#005cc0;stop-opacity:1" id="stop4380" offset="1"/></linearGradient><marker id="Arrow2Lend" orient="auto" refX="0" refY="0" style="overflow:visible"><path id="path3729" d="M 8.7185878,4.0337352 L -2.2072895,0.016013256 L 8.7185884,-4.0017078 C 6.9730900,-1.6296469 6.9831476,1.6157441 8.7185878,4.0337352 z" transform="scale(1.1) rotate(180) translate(1,0)" style="font-size:12;fill-rule:evenodd;stroke-width:.625;stroke-linejoin:round"/></marker><linearGradient id="linearGradient3645"><stop style="stop-color:red;stop-opacity:1" id="stop3647" offset="0"/><stop style="stop-color:#c00000;stop-opacity:1" id="stop3649" offset="1"/></linearGradient><linearGradient id="linearGradient3659" x1="26" x2="18" y1="28" y2="16" gradientUnits="userSpaceOnUse" xlink:href="#linearGradient3631"/><linearGradient id="linearGradient3631"><stop style="stop-color:#fff;stop-opacity:.50196081" id="stop3633" offset="0"/><stop style="stop-color:#fff;stop-opacity:0" id="stop3635" offset="1"/></linearGradient><linearGradient id="linearGradient2854" x1="26" x2="18" y1="28" y2="16" gradientUnits="userSpaceOnUse" xlink:href="#linearGradient3631"/><radialGradient id="radialGradient3651" cx="32" cy="29" r="20.094" fx="32" fy="29" gradientUnits="userSpaceOnUse" xlink:href="#linearGradient3645"/><radialGradient id="radialGradient4382" cx="40.039" cy="30.5" r="12.266" fx="40.039" fy="30.5" gradientTransform="matrix(0,2,-2.0127388,0,94.763535,-32.874999)" gradientUnits="userSpaceOnUse" xlink:href="#linearGradient4376"/></defs><metadata id="metadata2821"/><g id="layer1"><path style="font-size:medium;font-style:normal;font-variant:normal;font-weight:400;font-stretch:normal;text-indent:0;text-align:start;text-decoration:none;line-height:normal;letter-spacing:normal;word-spacing:normal;text-transform:none;direction:ltr;block-progression:tb;writing-mode:lr-tb;text-anchor:start;color:#000;fill:url(#radialGradient4382);fill-opacity:1;stroke:navy;stroke-width:2;stroke-miterlimit:4;stroke-opacity:1;stroke-dasharray:none;marker:none;visibility:visible;display:inline;overflow:visible;enable-background:accumulate;font-family:Andale Mono;-inkscape-font-specification:Andale Mono" id="path3700" d="m 57.062499,31.9375 -5.9375,-24.9999996 c 0,0 -0.08228,4.0551476 -2.937499,7.5000016 C 44.09966,10.613556 38.570618,8.2500004 32.562498,8.2500004 20.000054,8.2500004 9.6875001,18.562558 9.6875001,31.125 9.6875001,43.687444 20.000054,54.000002 32.5625,54 38.843721,54 44.617216,51.445284 48.749999,47.3125 A 6.0104076,6.0104076 0 1 0 40.25,38.812502 C 38.275232,40.787268 35.60108,42 32.562498,42 c -6.077164,0 -10.875,-4.797834 -10.875,-10.875 0,-6.077164 4.797836,-10.874998 10.875002,-10.875 2.777592,0 5.277169,1.006642 7.1875,2.6875 C 36.258044,25.956488 32,26 32,26 l 25.062499,5.9375 z"/></g></svg>