<svg xmlns="http://www.w3.org/2000/svg" xmlns:svg="http://www.w3.org/2000/svg" xmlns:xlink="http://www.w3.org/1999/xlink" id="svg3617" width="64" height="64" version="1.1"><defs id="defs3619"><filter id="filter3593" width="1.24" height="1.24" x="-.12" y="-.12" color-interpolation-filters="sRGB"><feGaussianBlur id="feGaussianBlur3595" stdDeviation="2.25"/></filter><filter id="filter3613" width="1.656" height="1.553" x="-.328" y="-.276" color-interpolation-filters="sRGB"><feGaussianBlur id="feGaussianBlur3615" stdDeviation="4.375"/></filter><filter id="filter3667" width="1.24" height="1.24" x="-.12" y="-.12" color-interpolation-filters="sRGB"><feGaussianBlur id="feGaussianBlur3669" stdDeviation="2.25"/></filter><radialGradient id="radialGradient3824" cx="32" cy="55" r="14.5" fx="32" fy="55" gradientTransform="matrix(1,0,0,0.24137931,0,41.724138)" gradientUnits="userSpaceOnUse" xlink:href="#linearGradient3818"/><linearGradient id="linearGradient3818"><stop style="stop-color:#000;stop-opacity:.50196081" id="stop3820" offset="0"/><stop style="stop-color:#000;stop-opacity:0" id="stop3822" offset="1"/></linearGradient><radialGradient id="radialGradient3814" cx="32" cy="32" r="16.51" fx="32" fy="32" gradientTransform="matrix(0.70710678,0.70710678,-1.0497408,1.0497408,42.964289,-24.219123)" gradientUnits="userSpaceOnUse" xlink:href="#linearGradient3808"/><linearGradient id="linearGradient3808"><stop style="stop-color:#0080ff;stop-opacity:1" id="stop3810" offset="0"/><stop style="stop-color:#80c4ff;stop-opacity:1" id="stop3812" offset="1"/></linearGradient><linearGradient id="linearGradient3853" x1="26" x2="18" y1="28" y2="16" gradientTransform="matrix(1.25,0,0,1.1666666,-4.5,-2.6666656)" gradientUnits="userSpaceOnUse" xlink:href="#linearGradient3631"/><linearGradient id="linearGradient3631"><stop style="stop-color:#fff;stop-opacity:.50196081" id="stop3633" offset="0"/><stop style="stop-color:#fff;stop-opacity:0" id="stop3635" offset="1"/></linearGradient></defs><metadata id="metadata3622"/><g id="layer1"><path style="fill:#9595ff;fill-opacity:1;stroke:#2929ff;stroke-width:.86552507px;stroke-linecap:butt;stroke-linejoin:miter;stroke-opacity:1" id="path3723" d="m 13.387307,53.521783 4.029884,-47.5890205 14.104592,0 -4.029884,47.5890205 -14.104592,0 z"/><path style="fill:none;stroke:#5b5bff;stroke-width:1;stroke-linecap:butt;stroke-linejoin:miter;stroke-opacity:1;stroke-miterlimit:4;stroke-dasharray:1,1;stroke-dashoffset:0" id="path3644" d="M 20.909091,52.636364 24.636364,7.1818182"/><g id="g3650" transform="matrix(0.25,0,0,0.25,12.818181,38.937499)"><path style="opacity:.98999999;fill:none;stroke:#000;stroke-width:3;stroke-miterlimit:4;stroke-opacity:1;stroke-dasharray:none;stroke-dashoffset:0;filter:url(#filter3593)" id="path3616" d="m 32,8.75 c -12.426407,0 -22.5,10.073593 -22.5,22.5 0,12.426406 10.073593,22.5 22.5,22.5 12.426406,0 22.5,-10.073594 22.5,-22.5 C 54.5,18.823593 44.426406,8.75 32,8.75 z m 0,7.5 c 8.284272,0 15,6.715729 15,15 0,8.284271 -6.715728,15 -15,15 -8.284272,0 -15,-6.715729 -15,-15 0,-8.284271 6.715728,-15 15,-15 z"/><path id="path3613" d="m 32,8.75 c -12.426407,0 -22.5,10.073593 -22.5,22.5 0,12.426406 10.073593,22.5 22.5,22.5 12.426406,0 22.5,-10.073594 22.5,-22.5 C 54.5,18.823593 44.426406,8.75 32,8.75 z m 0,7.5 c 8.284272,0 15,6.715729 15,15 0,8.284271 -6.715728,15 -15,15 -8.284272,0 -15,-6.715729 -15,-15 0,-8.284271 6.715728,-15 15,-15 z" style="fill:#ff0;fill-opacity:1;stroke:green;stroke-width:3;stroke-miterlimit:4;stroke-opacity:1;stroke-dasharray:none;stroke-dashoffset:0"/><path id="path2815" d="M 32,10 16,48 32,40 48,48 32,10 z" transform="matrix(0.75,0,0,0.75,8,7.25)" style="opacity:.98999999;fill:none;stroke:#000;stroke-width:16;stroke-linecap:butt;stroke-linejoin:round;stroke-miterlimit:4;stroke-opacity:1;stroke-dasharray:none;filter:url(#filter3613)"/><path id="path3619" d="m 20,43.25 12,-28.5 12,28.5 -12,-6 -12,6 z" style="fill:none;stroke:green;stroke-width:12;stroke-linecap:butt;stroke-linejoin:round;stroke-miterlimit:4;stroke-opacity:1;stroke-dasharray:none"/><path style="fill:#ff0;fill-opacity:1;stroke:#ff0;stroke-width:3;stroke-linecap:butt;stroke-linejoin:round;stroke-miterlimit:4;stroke-opacity:1;stroke-dasharray:none" id="path3621" d="m 20,43.25 12,-28.5 12,28.5 -12,-6 -12,6 z"/></g><g id="g2818" transform="matrix(0.25,0,0,0.25,16,4.9034091)"><path style="opacity:.98999999;fill:none;stroke:#000;stroke-width:3;stroke-miterlimit:4;stroke-opacity:1;stroke-dasharray:none;stroke-dashoffset:0;filter:url(#filter3667)" id="path3616-9" d="m 32,8.75 c -12.426407,0 -22.5,10.073593 -22.5,22.5 0,12.426406 10.073593,22.5 22.5,22.5 12.426406,0 22.5,-10.073594 22.5,-22.5 C 54.5,18.823593 44.426406,8.75 32,8.75 z m 0,7.5 c 8.284272,0 15,6.715729 15,15 0,8.284271 -6.715728,15 -15,15 -8.284272,0 -15,-6.715729 -15,-15 0,-8.284271 6.715728,-15 15,-15 z"/><path id="path3613-6" d="m 32,8.75 c -12.426407,0 -22.5,10.073593 -22.5,22.5 0,12.426406 10.073593,22.5 22.5,22.5 12.426406,0 22.5,-10.073594 22.5,-22.5 C 54.5,18.823593 44.426406,8.75 32,8.75 z m 0,7.5 c 8.284272,0 15,6.715729 15,15 0,8.284271 -6.715728,15 -15,15 -8.284272,0 -15,-6.715729 -15,-15 0,-8.284271 6.715728,-15 15,-15 z" style="fill:red;fill-opacity:1;stroke:navy;stroke-width:3;stroke-miterlimit:4;stroke-opacity:1;stroke-dasharray:none;stroke-dashoffset:0"/></g><g id="g2838" transform="matrix(0.5,0,0,0.5,27.432859,11.584428)"><path id="path3816" d="m 46,55 c 0,1.656854 -6.268014,3 -14,3 -7.731986,0 -14,-1.343146 -14,-3 0,-1.656854 6.268014,-3 14,-3 7.731986,0 14,1.343146 14,3 z" transform="matrix(1.2857141,0,0,1.3333333,-9.1428526,-15.333333)" style="fill:url(#radialGradient3824);fill-opacity:1;stroke:none"/><path id="rect3765" d="m 48.970563,15.029437 -29.698485,7.071068 c 0,0 5.656854,0 9.899495,4.242641 l -2.828427,2.828427 -15.556349,15.556349 8.485281,8.485281 15.556349,-15.556349 2.828427,-2.828427 c 4.242641,4.242641 4.242641,9.899495 4.242641,9.899495 l 7.071068,-29.698485 z" style="fill:url(#radialGradient3814);fill-opacity:1;stroke:none"/><path id="path3613-8" d="m 47.96875,15.28125 -28.6875,6.8125 c 0,0 5.632359,0.0074 9.875,4.25 l -2.8125,2.8125 -0.75,0.75 C 26.387361,29.973281 27.180567,30 28,30 39.045695,30 48,23.731986 48,16 48,15.758375 47.98603,15.519869 47.96875,15.28125 z" style="fill:url(#linearGradient3853);fill-opacity:1;fill-rule:evenodd;stroke:none"/><path id="path3652" d="m 48.970563,15.029437 -29.698485,7.071068 c 0,0 5.656854,0 9.899495,4.242641 l -2.828427,2.828427 -15.556349,15.556349 8.485281,8.485281 15.556349,-15.556349 2.828427,-2.828427 c 4.242641,4.242641 4.242641,9.899495 4.242641,9.899495 l 7.071068,-29.698485 z" style="fill:none;stroke:navy;stroke-width:1.01980388;stroke-opacity:1"/></g></g></svg>