<svg xmlns="http://www.w3.org/2000/svg" xmlns:svg="http://www.w3.org/2000/svg" id="svg2" width="64" height="64" version="1.1"><metadata id="metadata8"/><defs id="defs6"><filter id="filter3593" width="1.24" height="1.24" x="-.12" y="-.12"><feGaussianBlur id="feGaussianBlur3595" stdDeviation="2.25"/></filter><filter id="filter3613" width="1.656" height="1.553" x="-.328" y="-.276"><feGaussianBlur id="feGaussianBlur3615" stdDeviation="4.375"/></filter></defs><path id="path3616" d="m 32,8.75 c -12.426407,0 -22.5,10.073593 -22.5,22.5 0,12.426406 10.073593,22.5 22.5,22.5 12.426406,0 22.5,-10.073594 22.5,-22.5 C 54.5,18.823593 44.426406,8.75 32,8.75 z m 0,7.5 c 8.284272,0 15,6.715729 15,15 0,8.284271 -6.715728,15 -15,15 -8.284272,0 -15,-6.715729 -15,-15 0,-8.284271 6.715728,-15 15,-15 z" style="fill:none;fill-opacity:1;stroke:#000;stroke-width:3;stroke-miterlimit:4;stroke-opacity:1;stroke-dasharray:none;stroke-dashoffset:0;filter:url(#filter3593);opacity:.99"/><path style="fill:#ff0;fill-opacity:1;stroke:green;stroke-width:3;stroke-miterlimit:4;stroke-opacity:1;stroke-dasharray:none;stroke-dashoffset:0" id="path3613" d="m 32,8.75 c -12.426407,0 -22.5,10.073593 -22.5,22.5 0,12.426406 10.073593,22.5 22.5,22.5 12.426406,0 22.5,-10.073594 22.5,-22.5 C 54.5,18.823593 44.426406,8.75 32,8.75 z m 0,7.5 c 8.284272,0 15,6.715729 15,15 0,8.284271 -6.715728,15 -15,15 -8.284272,0 -15,-6.715729 -15,-15 0,-8.284271 6.715728,-15 15,-15 z"/><path style="fill:none;stroke:#000;stroke-width:16;stroke-linecap:butt;stroke-linejoin:round;stroke-miterlimit:4;stroke-opacity:1;stroke-dasharray:none;opacity:.99;filter:url(#filter3613)" id="path2815" d="M 32,10 16,48 32,40 48,48 32,10 z" transform="matrix(0.75,0,0,0.75,8,7.25)"/><path style="fill:none;stroke:green;stroke-width:12;stroke-linecap:butt;stroke-linejoin:round;stroke-miterlimit:4;stroke-opacity:1;stroke-dasharray:none" id="path3619" d="m 20,43.25 12,-28.5 12,28.5 -12,-6 -12,6 z"/><path id="path3621" d="m 20,43.25 12,-28.5 12,28.5 -12,-6 -12,6 z" style="fill:#ff0;fill-opacity:1;stroke:#ff0;stroke-width:3;stroke-linecap:butt;stroke-linejoin:round;stroke-miterlimit:4;stroke-opacity:1;stroke-dasharray:none"/></svg>