<svg xmlns="http://www.w3.org/2000/svg" xmlns:svg="http://www.w3.org/2000/svg" id="svg2" width="64" height="64" version="1.1"><metadata id="metadata8"/><defs id="defs6"><filter id="filter3612" width="1.945" height="1.796" x="-.472" y="-.398"><feGaussianBlur id="feGaussianBlur3614" stdDeviation="6.298"/></filter><filter id="filter3667" width="1.24" height="1.24" x="-.12" y="-.12"><feGaussianBlur id="feGaussianBlur3669" stdDeviation="2.25"/></filter></defs><path id="path3616" d="m 32,8.75 c -12.426407,0 -22.5,10.073593 -22.5,22.5 0,12.426406 10.073593,22.5 22.5,22.5 12.426406,0 22.5,-10.073594 22.5,-22.5 C 54.5,18.823593 44.426406,8.75 32,8.75 z m 0,7.5 c 8.284272,0 15,6.715729 15,15 0,8.284271 -6.715728,15 -15,15 -8.284272,0 -15,-6.715729 -15,-15 0,-8.284271 6.715728,-15 15,-15 z" style="fill:none;fill-opacity:1;stroke:#000;stroke-width:3;stroke-miterlimit:4;stroke-opacity:1;stroke-dasharray:none;stroke-dashoffset:0;filter:url(#filter3667);opacity:.99"/><path style="fill:red;fill-opacity:1;stroke:navy;stroke-width:3;stroke-miterlimit:4;stroke-opacity:1;stroke-dasharray:none;stroke-dashoffset:0" id="path3613" d="m 32,8.75 c -12.426407,0 -22.5,10.073593 -22.5,22.5 0,12.426406 10.073593,22.5 22.5,22.5 12.426406,0 22.5,-10.073594 22.5,-22.5 C 54.5,18.823593 44.426406,8.75 32,8.75 z m 0,7.5 c 8.284272,0 15,6.715729 15,15 0,8.284271 -6.715728,15 -15,15 -8.284272,0 -15,-6.715729 -15,-15 0,-8.284271 6.715728,-15 15,-15 z"/></svg>